<svg width="24" height="24" viewBox="0 0 24 24" fill="none" xmlns="http://www.w3.org/2000/svg">
<g clip-path="url(#clip0_916_10616)">
<path d="M4.27173 0.976807H14.2337C16.0636 0.976807 17.5489 2.46213 17.5489 4.29199V23.9821H6.46871C5.25633 23.9821 4.27173 22.9979 4.27173 21.7851V0.976807Z" fill="#FF8702"/>
<path d="M7.66388 12.5435H14.7307V8.56641H7.66388C6.56558 8.56641 5.67554 9.45684 5.67554 10.5548C5.67554 11.653 6.56597 12.5431 7.66388 12.5431V12.5435Z" fill="#FFB602"/>
<path d="M18.763 24H14.3174V8.56641C17.747 8.56641 20.5274 11.3468 20.5274 14.7764V22.2356C20.5274 23.2103 19.7373 24 18.763 24Z" fill="#FFB602"/>
<path d="M11.8866 8.38204C12.8158 8.38204 13.5691 7.62877 13.5691 6.69956C13.5691 5.77036 12.8158 5.01709 11.8866 5.01709C10.9574 5.01709 10.2041 5.77036 10.2041 6.69956C10.2041 7.62877 10.9574 8.38204 11.8866 8.38204Z" fill="#FFB602"/>
<path d="M5.67635 4.40447C6.89288 4.40447 7.87908 3.41827 7.87908 2.20174C7.87908 0.985215 6.89288 -0.000976562 5.67635 -0.000976562C4.45982 -0.000976562 3.47363 0.985215 3.47363 2.20174C3.47363 3.41827 4.45982 4.40447 5.67635 4.40447Z" fill="#FFB602"/>
<path d="M5.6868 3.87799C6.60734 3.87799 7.35358 3.13175 7.35358 2.21121C7.35358 1.29068 6.60734 0.544434 5.6868 0.544434C4.76626 0.544434 4.02002 1.29068 4.02002 2.21121C4.02002 3.13175 4.76626 3.87799 5.6868 3.87799Z" fill="#FF8702"/>
<path d="M10.0491 12.5413H15.9226C16.9872 12.5413 17.8501 13.4041 17.8501 14.4687C17.8501 15.533 16.9872 16.3962 15.9226 16.3962H10.0491C8.98445 16.3962 8.12158 15.5333 8.12158 14.4687C8.12158 13.4045 8.98445 12.5413 10.0491 12.5413Z" fill="#FF8702"/>
<path d="M13.6831 9.33992V7.42967C13.6831 6.36506 14.546 5.5022 15.6106 5.5022C16.6748 5.5022 17.5381 6.36506 17.5381 7.42967V9.33992C17.5381 10.4045 16.6752 11.2674 15.6106 11.2674C14.5464 11.2674 13.6831 10.4045 13.6831 9.33992Z" fill="#FF8702"/>
</g>
<defs>
<clipPath id="clip0_916_10616">
<rect width="24" height="24" fill="white"/>
</clipPath>
</defs>
</svg>
