<svg width="53" height="53" viewBox="0 0 53 53" fill="none" xmlns="http://www.w3.org/2000/svg">
<circle cx="26.5" cy="26.5" r="26.5" fill="#FF8702" fill-opacity="0.25"/>
<g clip-path="url(#clip0_1_8330)">
<path d="M26.6651 26.4995C28.0234 26.4995 29.3512 26.0851 30.4805 25.3086C31.6099 24.5321 32.4901 23.4284 33.0099 22.1372C33.5297 20.8459 33.6657 19.425 33.4007 18.0542C33.1357 16.6834 32.4817 15.4243 31.5212 14.436C30.5608 13.4477 29.3371 12.7747 28.0049 12.502C26.6728 12.2293 25.2919 12.3693 24.037 12.9041C22.7822 13.439 21.7096 14.3447 20.955 15.5069C20.2004 16.669 19.7976 18.0352 19.7976 19.4329C19.7976 21.3071 20.5211 23.1045 21.8091 24.4298C23.097 25.755 24.8438 26.4995 26.6651 26.4995ZM26.6651 28.5186C22.4085 28.5186 13.9111 31.2241 13.9111 36.5948V40.6329H39.4192V36.5948C39.4192 31.2241 30.9218 28.5186 26.6651 28.5186Z" fill="white"/>
</g>
<defs>
<clipPath id="clip0_1_8330">
<rect width="28.3422" height="28.2667" fill="white" transform="translate(12.4941 12.3662)"/>
</clipPath>
</defs>
</svg>
